<svg xmlns="http://www.w3.org/2000/svg" fill="none" viewBox="0 0 1032.622 351.0725274725275" style="max-height: 500px" width="1032.622" height="351.0725274725275">
<path fill-opacity="0.12" fill="url(#paint0_linear_550_9)" d="M478.498 258.667C538.882 258.667 587.832 209.717 587.832 149.333C587.832 88.9503 538.882 40 478.498 40C418.115 40 369.165 88.9502 369.165 149.333C369.165 209.717 418.115 258.667 478.498 258.667ZM870.95 246.061C870.95 297.155 829.531 338.574 778.437 338.574C727.344 338.574 685.924 297.155 685.924 246.061C685.924 194.968 727.344 153.548 778.437 153.548C829.531 153.548 870.95 194.968 870.95 246.061ZM462.937 379.453C462.937 370.552 470.153 363.336 479.054 363.336C487.956 363.336 495.172 370.552 495.172 379.453C495.172 388.354 487.956 395.57 479.054 395.57C470.153 395.57 462.937 388.354 462.937 379.453ZM504.291 537.291C504.291 551.231 492.99 562.531 479.05 562.531C465.111 562.531 453.81 551.231 453.81 537.291C453.81 523.351 465.111 512.051 479.05 512.051C492.99 512.051 504.291 523.351 504.291 537.291ZM506.291 537.291C506.291 552.335 494.095 564.531 479.05 564.531C464.006 564.531 451.81 552.335 451.81 537.291C451.81 522.247 464.006 510.051 479.05 510.051C494.095 510.051 506.291 522.247 506.291 537.291ZM553.753 582.445C565.378 582.445 574.802 573.02 574.802 561.395C574.802 549.77 565.378 540.346 553.753 540.346C542.127 540.346 532.703 549.77 532.703 561.395C532.703 573.02 542.127 582.445 553.753 582.445ZM553.753 584.445C566.482 584.445 576.802 574.125 576.802 561.395C576.802 548.665 566.482 538.346 553.753 538.346C541.023 538.346 530.703 548.665 530.703 561.395C530.703 574.125 541.023 584.445 553.753 584.445ZM358.215 642.481C367.911 642.481 375.772 634.62 375.772 624.924C375.772 615.227 367.911 607.367 358.215 607.367C348.518 607.367 340.658 615.227 340.658 624.924C340.658 634.62 348.518 642.481 358.215 642.481ZM358.215 644.481C369.016 644.481 377.772 635.725 377.772 624.924C377.772 614.123 369.016 605.367 358.215 605.367C347.414 605.367 338.658 614.123 338.658 624.924C338.658 635.725 347.414 644.481 358.215 644.481ZM372.982 703.85C372.982 712.003 366.373 718.613 358.219 718.613C350.066 718.613 343.456 712.003 343.456 703.85C343.456 695.696 350.066 689.087 358.219 689.087C366.373 689.087 372.982 695.696 372.982 703.85ZM374.982 703.85C374.982 713.108 367.477 720.613 358.219 720.613C348.961 720.613 341.456 713.108 341.456 703.85C341.456 694.592 348.961 687.087 358.219 687.087C367.477 687.087 374.982 694.592 374.982 703.85ZM599.902 718.613C608.055 718.613 614.665 712.003 614.665 703.85C614.665 695.696 608.055 689.087 599.902 689.087C591.748 689.087 585.138 695.696 585.138 703.85C585.138 712.003 591.748 718.613 599.902 718.613ZM599.902 720.613C609.16 720.613 616.665 713.108 616.665 703.85C616.665 694.592 609.16 687.087 599.902 687.087C590.644 687.087 583.138 694.592 583.138 703.85C583.138 713.108 590.644 720.613 599.902 720.613ZM562.264 767.411C562.264 772.093 558.469 775.888 553.787 775.888C549.106 775.888 545.31 772.093 545.31 767.411C545.31 762.729 549.106 758.934 553.787 758.934C558.469 758.934 562.264 762.729 562.264 767.411ZM564.264 767.411C564.264 773.197 559.574 777.888 553.787 777.888C548.001 777.888 543.31 773.197 543.31 767.411C543.31 761.625 548.001 756.934 553.787 756.934C559.574 756.934 564.264 761.625 564.264 767.411ZM484.019 791.536C484.019 794.288 481.787 796.52 479.034 796.52C476.281 796.52 474.049 794.288 474.049 791.536C474.049 788.783 476.281 786.551 479.034 786.551C481.787 786.551 484.019 788.783 484.019 791.536ZM486.019 791.536C486.019 795.393 482.892 798.52 479.034 798.52C475.177 798.52 472.049 795.393 472.049 791.536C472.049 787.678 475.177 784.551 479.034 784.551C482.892 784.551 486.019 787.678 486.019 791.536ZM617.426 624.924C617.426 634.62 609.565 642.481 599.869 642.481C590.172 642.481 582.312 634.62 582.312 624.924C582.312 615.227 590.172 607.367 599.869 607.367C609.565 607.367 617.426 615.227 617.426 624.924ZM619.426 624.924C619.426 635.725 610.67 644.481 599.869 644.481C589.068 644.481 580.312 635.725 580.312 624.924C580.312 614.123 589.068 605.367 599.869 605.367C610.67 605.367 619.426 614.123 619.426 624.924ZM404.277 582.445C415.902 582.445 425.326 573.02 425.326 561.395C425.326 549.77 415.902 540.346 404.277 540.346C392.652 540.346 383.228 549.77 383.228 561.395C383.228 573.02 392.652 582.445 404.277 582.445ZM404.277 584.445C417.007 584.445 427.326 574.125 427.326 561.395C427.326 548.665 417.007 538.346 404.277 538.346C391.547 538.346 381.228 548.665 381.228 561.395C381.228 574.125 391.547 584.445 404.277 584.445ZM412.789 767.072C412.789 771.754 408.993 775.549 404.312 775.549C399.63 775.549 395.835 771.754 395.835 767.072C395.835 762.39 399.63 758.595 404.312 758.595C408.993 758.595 412.789 762.39 412.789 767.072ZM414.789 767.072C414.789 772.858 410.098 777.549 404.312 777.549C398.526 777.549 393.835 772.858 393.835 767.072C393.835 761.286 398.526 756.595 404.312 756.595C410.098 756.595 414.789 761.286 414.789 767.072ZM306.567 410.876C293.215 410.876 282.391 421.7 282.391 435.052C282.391 448.403 293.215 459.227 306.567 459.227C319.919 459.227 330.743 448.403 330.743 435.052C330.743 421.7 319.919 410.876 306.567 410.876ZM161.513 581.752C161.513 560.39 178.831 543.071 200.194 543.071C221.557 543.071 238.875 560.39 238.875 581.752C238.875 603.115 221.557 620.433 200.194 620.433C178.831 620.433 161.513 603.115 161.513 581.752ZM757.873 543.071C736.51 543.071 719.191 560.39 719.191 581.753C719.191 603.115 736.51 620.433 757.873 620.433C779.235 620.433 796.554 603.115 796.554 581.753C796.554 560.39 779.235 543.071 757.873 543.071ZM712.743 763.874C712.743 738.951 732.947 718.747 757.871 718.747C782.794 718.747 802.998 738.951 802.998 763.874C802.998 788.798 782.794 809.002 757.871 809.002C732.947 809.002 712.743 788.798 712.743 763.874ZM200.22 718.747C175.297 718.747 155.092 738.951 155.092 763.874C155.092 788.798 175.297 809.002 200.22 809.002C225.144 809.002 245.348 788.798 245.348 763.874C245.348 738.951 225.144 718.747 200.22 718.747ZM253.4 910.521C253.4 881.147 277.212 857.334 306.586 857.334C335.96 857.334 359.773 881.147 359.773 910.521C359.773 939.895 335.961 963.707 306.586 963.707C277.212 963.707 253.4 939.895 253.4 910.521ZM479.04 903.262C444.325 903.262 416.183 931.404 416.183 966.119C416.183 1000.83 444.325 1028.98 479.04 1028.98C513.755 1028.98 541.897 1000.83 541.897 966.119C541.897 931.404 513.755 903.262 479.04 903.262ZM598.313 910.521C598.313 881.147 622.126 857.334 651.5 857.334C680.874 857.334 704.686 881.147 704.686 910.521C704.686 939.895 680.874 963.707 651.5 963.707C622.126 963.707 598.313 939.895 598.313 910.521ZM651.452 411.667C638.1 411.667 627.276 422.491 627.276 435.843C627.276 449.195 638.1 460.019 651.452 460.019C664.804 460.019 675.628 449.195 675.628 435.843C675.628 422.491 664.804 411.667 651.452 411.667ZM506.501 1169.79C506.501 1185.28 493.949 1197.83 478.467 1197.83C462.984 1197.83 450.432 1185.28 450.432 1169.79C450.432 1154.31 462.984 1141.76 478.467 1141.76C493.949 1141.76 506.501 1154.31 506.501 1169.79ZM778.46 1115.11C801.685 1115.11 820.512 1096.29 820.512 1073.06C820.512 1049.84 801.685 1031.01 778.46 1031.01C755.236 1031.01 736.409 1049.84 736.409 1073.06C736.409 1096.29 755.236 1115.11 778.46 1115.11ZM1030.74 817.941C1030.74 855.1 1000.61 885.223 963.456 885.223C926.297 885.223 896.174 855.1 896.174 817.941C896.174 780.782 926.297 750.659 963.456 750.659C1000.61 750.659 1030.74 780.782 1030.74 817.941ZM-6.46754 885.223C30.6914 885.223 60.8147 855.1 60.8147 817.941C60.8147 780.782 30.6914 750.659 -6.46752 750.659C-43.6265 750.659 -73.7498 780.782 -73.7498 817.941C-73.7498 855.1 -43.6265 885.223 -6.46754 885.223ZM71.9919 501.174C71.9919 544.526 36.848 579.669 -6.50408 579.669C-49.8562 579.669 -85 544.526 -85 501.173C-85 457.821 -49.8562 422.678 -6.50405 422.678C36.8481 422.678 71.9919 457.821 71.9919 501.174ZM963.504 579.669C1006.86 579.669 1042 544.526 1042 501.173C1042 457.821 1006.86 422.678 963.504 422.678C920.152 422.678 885.008 457.821 885.008 501.173C885.008 544.526 920.152 579.669 963.504 579.669ZM271.041 246.061C271.041 297.155 229.622 338.574 178.528 338.574C127.434 338.574 86.015 297.155 86.015 246.061C86.015 194.968 127.434 153.548 178.528 153.548C229.622 153.548 271.041 194.968 271.041 246.061ZM178.551 1113.73C201.775 1113.73 220.603 1094.9 220.603 1071.68C220.603 1048.45 201.775 1029.63 178.551 1029.63C155.327 1029.63 136.5 1048.45 136.5 1071.68C136.5 1094.9 155.327 1113.73 178.551 1113.73Z" clip-rule="evenodd" fill-rule="evenodd"/>
<ellipse fill="#F6F8FC" ry="0.370643" rx="0.370644" cy="39.8806" cx="189.984"/>
<ellipse fill="#F6F8FC" ry="0.555965" rx="0.555966" cy="38.5988" cx="193.951"/>
<ellipse fill="#F6F8FC" ry="0.889544" rx="0.889545" cy="35.2269" cx="196.399"/>
<ellipse fill="#F6F8FC" ry="0.889544" rx="0.889545" cy="35.2269" cx="183.574"/>
<ellipse fill="#F6F8FC" ry="1.0378" rx="1.0378" cy="31.0368" cx="183.573"/>
<ellipse fill="#F6F8FC" ry="1.0378" rx="1.0378" cy="31.0368" cx="196.397"/>
<ellipse fill="#F6F8FC" ry="1.22312" rx="1.22312" cy="27.6667" cx="193.949"/>
<ellipse fill="#F6F8FC" ry="1.44551" rx="1.44551" cy="26.3891" cx="189.986"/>
<ellipse fill="#F6F8FC" ry="1.22312" rx="1.22312" cy="27.6667" cx="186.018"/>
<ellipse fill="#F6F8FC" ry="0.555965" rx="0.555966" cy="38.58" cx="186.02"/>
<ellipse fill="#F6F8FC" transform="rotate(180 189.987 18.0104)" ry="0.855262" rx="0.855263" cy="18.0104" cx="189.987"/>
<ellipse fill="#F6F8FC" transform="rotate(180 180.834 20.9601)" ry="1.28289" rx="1.28289" cy="20.9601" cx="180.834"/>
<ellipse fill="#F6F8FC" transform="rotate(180 175.189 28.745)" ry="2.05263" rx="2.05263" cy="28.745" cx="175.189"/>
<ellipse fill="#F6F8FC" transform="rotate(180 204.782 28.745)" ry="2.05263" rx="2.05263" cy="28.745" cx="204.782"/>
<ellipse fill="#F6F8FC" transform="rotate(180 204.782 38.4084)" ry="2.39473" rx="2.39474" cy="38.4084" cx="204.782"/>
<ellipse fill="#F6F8FC" transform="rotate(180 175.19 38.4084)" ry="2.39473" rx="2.39474" cy="38.4084" cx="175.19"/>
<ellipse fill="#F6F8FC" transform="rotate(180 180.835 46.1909)" ry="2.82236" rx="2.82237" cy="46.1909" cx="180.835"/>
<ellipse fill="#F6F8FC" transform="rotate(180 189.987 49.1418)" ry="3.33552" rx="3.33552" cy="49.1418" cx="189.987"/>
<ellipse fill="#F6F8FC" transform="rotate(180 199.138 46.1909)" ry="2.82236" rx="2.82237" cy="46.1909" cx="199.138"/>
<ellipse fill="#F6F8FC" transform="rotate(180 199.135 21.0023)" ry="1.28289" rx="1.28289" cy="21.0023" cx="199.135"/>
<ellipse fill="#F6F8FC" ry="1.48765" rx="1.48765" cy="59.9548" cx="189.956"/>
<ellipse fill="#F6F8FC" ry="2.23148" rx="2.23148" cy="54.8205" cx="205.874"/>
<ellipse fill="#F6F8FC" ry="3.57036" rx="3.57037" cy="41.2813" cx="215.691"/>
<ellipse fill="#F6F8FC" ry="3.57036" rx="3.57037" cy="41.2813" cx="164.223"/>
<ellipse fill="#F6F8FC" ry="4.16542" rx="4.16543" cy="24.4717" cx="164.22"/>
<ellipse fill="#F6F8FC" ry="4.16542" rx="4.16543" cy="24.4717" cx="215.695"/>
<ellipse fill="#F6F8FC" ry="4.90925" rx="4.90925" cy="10.935" cx="205.874"/>
<ellipse fill="#F6F8FC" ry="5.80184" rx="5.80184" cy="5.80185" cx="189.957"/>
<ellipse fill="#F6F8FC" ry="4.90925" rx="4.90925" cy="10.935" cx="174.039"/>
<ellipse fill="#F6F8FC" ry="2.23148" rx="2.23148" cy="54.7455" cx="174.04"/>
<g opacity="0.98">
<mask fill="black" height="5" width="4" y="15.2432" x="418.652" maskUnits="userSpaceOnUse" id="path-32-outside-1_550_9">
<rect height="5" width="4" y="15.2432" x="418.652" fill="white"/>
<path d="M420.553 15.3278C420.822 15.3278 421.062 15.3838 421.269 15.4845C421.471 15.5851 421.633 15.7306 421.745 15.9207C421.857 16.1109 421.918 16.329 421.918 16.5752C421.918 16.838 421.846 17.0674 421.711 17.2631C421.571 17.4645 421.387 17.6043 421.158 17.6826L421.985 19.2432H421.269L420.525 17.8225H419.653V19.2432H419.01V15.3278H420.553ZM419.653 17.2631H420.503C420.732 17.2631 420.917 17.2016 421.051 17.0786C421.185 16.9555 421.258 16.7877 421.258 16.5752C421.258 16.3682 421.185 16.2004 421.051 16.0773C420.917 15.9543 420.732 15.8872 420.503 15.8872H419.653V17.2631Z"/>
</mask>
<path fill="#83888E" d="M420.553 15.3278C420.822 15.3278 421.062 15.3838 421.269 15.4845C421.471 15.5851 421.633 15.7306 421.745 15.9207C421.857 16.1109 421.918 16.329 421.918 16.5752C421.918 16.838 421.846 17.0674 421.711 17.2631C421.571 17.4645 421.387 17.6043 421.158 17.6826L421.985 19.2432H421.269L420.525 17.8225H419.653V19.2432H419.01V15.3278H420.553ZM419.653 17.2631H420.503C420.732 17.2631 420.917 17.2016 421.051 17.0786C421.185 16.9555 421.258 16.7877 421.258 16.5752C421.258 16.3682 421.185 16.2004 421.051 16.0773C420.917 15.9543 420.732 15.8872 420.503 15.8872H419.653V17.2631Z"/>
<path mask="url(#path-32-outside-1_550_9)" fill="#84898F" d="M421.269 15.4845L421.282 15.4594L421.282 15.4593L421.269 15.4845ZM421.745 15.9207L421.769 15.9066L421.745 15.9207ZM421.711 17.2631L421.734 17.2791L421.734 17.279L421.711 17.2631ZM421.158 17.6826L421.148 17.6562L421.117 17.6668L421.133 17.6957L421.158 17.6826ZM421.985 19.2432V19.2711H422.032L422.01 19.2301L421.985 19.2432ZM421.269 19.2432L421.245 19.2562L421.252 19.2711H421.269V19.2432ZM420.525 17.8225L420.55 17.8095L420.542 17.7945H420.525V17.8225ZM419.653 17.8225V17.7945H419.625V17.8225H419.653ZM419.653 19.2432V19.2711H419.681V19.2432H419.653ZM419.01 19.2432H418.982V19.2711H419.01V19.2432ZM419.01 15.3278V15.2999H418.982V15.3278H419.01ZM419.653 17.2631H419.625V17.2911H419.653V17.2631ZM421.051 17.0786L421.032 17.0579L421.051 17.0786ZM421.051 16.0773L421.07 16.0567L421.051 16.0773ZM419.653 15.8872V15.8592H419.625V15.8872H419.653ZM420.553 15.3558C420.818 15.3558 421.054 15.4109 421.257 15.5096L421.282 15.4593C421.071 15.3566 420.826 15.2999 420.553 15.2999V15.3558ZM421.257 15.5095C421.454 15.6079 421.612 15.7498 421.721 15.9349L421.769 15.9066C421.654 15.7113 421.488 15.5623 421.282 15.4594L421.257 15.5095ZM421.721 15.9349C421.83 16.1207 421.89 16.3339 421.89 16.5752H421.946C421.946 16.3242 421.883 16.1011 421.769 15.9066L421.721 15.9349ZM421.89 16.5752C421.89 16.8326 421.819 17.0564 421.688 17.2473L421.734 17.279C421.872 17.0784 421.946 16.8435 421.946 16.5752H421.89ZM421.688 17.2472C421.552 17.4437 421.372 17.5798 421.148 17.6562L421.167 17.7091C421.402 17.6288 421.591 17.4853 421.734 17.2791L421.688 17.2472ZM421.133 17.6957L421.961 19.2563L422.01 19.2301L421.182 17.6695L421.133 17.6957ZM421.985 19.2152H421.269V19.2711H421.985V19.2152ZM421.294 19.2302L420.55 17.8095L420.501 17.8354L421.245 19.2562L421.294 19.2302ZM420.525 17.7945H419.653V17.8504H420.525V17.7945ZM419.625 17.8225V19.2432H419.681V17.8225H419.625ZM419.653 19.2152H419.01V19.2711H419.653V19.2152ZM419.038 19.2432V15.3278H418.982V19.2432H419.038ZM419.01 15.3558H420.553V15.2999H419.01V15.3558ZM419.653 17.2911H420.503V17.2352H419.653V17.2911ZM420.503 17.2911C420.737 17.2911 420.929 17.2281 421.07 17.0992L421.032 17.0579C420.905 17.1751 420.727 17.2352 420.503 17.2352V17.2911ZM421.07 17.0992C421.211 16.9703 421.286 16.7947 421.286 16.5752H421.23C421.23 16.7807 421.16 16.9407 421.032 17.0579L421.07 17.0992ZM421.286 16.5752C421.286 16.3611 421.211 16.1855 421.07 16.0567L421.032 16.098C421.16 16.2153 421.23 16.3753 421.23 16.5752H421.286ZM421.07 16.0567C420.93 15.9281 420.738 15.8592 420.503 15.8592V15.9151C420.727 15.9151 420.904 15.9805 421.032 16.098L421.07 16.0567ZM420.503 15.8592H419.653V15.9151H420.503V15.8592ZM419.625 15.8872V17.2631H419.681V15.8872H419.625Z"/>
<circle stroke-width="0.559335" stroke="#83888E" r="3.35601" cy="17.2016" cx="420.329"/>
</g>
<path fill="#F6F8FC" d="M252.491 8.82855L236.087 51.8366H241.616L246.163 40.2244H264.902L269.449 51.8366H275.163L258.82 8.82855H252.491ZM263.305 35.3706H247.76L255.502 14.6654L263.305 35.3706ZM307.373 22.16C305.099 23.5117 303.318 25.3549 302.089 27.751C300.86 30.2086 300.246 32.9734 300.246 36.1683C300.246 39.3632 300.86 42.128 302.15 44.5856C303.441 47.0432 305.284 48.8864 307.619 50.2381C309.953 51.5897 312.657 52.2041 315.79 52.2041C319.354 52.2041 322.364 51.2211 324.822 49.1936C327.279 47.1661 328.815 44.5241 329.43 41.3293H324.33C323.777 43.3568 322.733 44.9542 321.135 46.0601C319.538 47.1661 317.633 47.719 315.421 47.719C312.472 47.719 310.138 46.7974 308.356 44.9542C306.513 43.111 305.591 40.6534 305.53 37.5814V37.1513H329.86C329.878 36.8534 329.897 36.5837 329.914 36.3388L329.914 36.3381C329.953 35.7752 329.983 35.3434 329.983 35.0009C329.86 31.9904 329.184 29.3485 327.955 27.0752C326.665 24.8633 324.945 23.143 322.733 21.9142C320.521 20.7469 317.94 20.1325 315.114 20.1325C312.165 20.1325 309.585 20.8083 307.373 22.16ZM321.75 26.768C323.47 28.2425 324.515 30.3315 324.76 32.9734H305.837C306.083 30.5158 307.066 28.4883 308.909 26.8909C310.691 25.3549 312.779 24.5561 315.176 24.5561C317.818 24.5561 320.029 25.2934 321.75 26.768ZM358.034 23.5731C360.369 25.9078 361.537 29.4713 361.537 34.3865V51.8355H356.498V34.6937C356.498 31.4989 355.761 29.0413 354.287 27.3209C352.812 25.6006 350.723 24.7405 348.02 24.7405C345.071 24.7405 342.736 25.7849 341.077 27.8125C339.357 29.9014 338.558 32.6662 338.558 36.1683V51.8355H333.52V20.5011H337.882L338.558 24.7405C340.893 21.6685 344.333 20.1325 348.88 20.1325C352.689 20.1325 355.7 21.2998 358.034 23.5731ZM366.609 44.5241C367.899 46.9817 369.742 48.8249 372.077 50.1766C374.412 51.5283 377.115 52.2041 380.187 52.2041C383.197 52.2041 385.901 51.5283 388.236 50.1766C390.57 48.8249 392.413 46.9817 393.765 44.5241C395.055 42.128 395.731 39.3632 395.731 36.1683C395.731 33.0349 395.055 30.2701 393.765 27.8125C392.413 25.4163 390.57 23.5117 388.236 22.16C385.901 20.8083 383.197 20.1325 380.187 20.1325C377.115 20.1325 374.412 20.8083 372.077 22.16C369.742 23.5117 367.899 25.4163 366.609 27.8125C365.257 30.2701 364.643 33.0349 364.643 36.1683C364.643 39.3632 365.257 42.128 366.609 44.5241ZM389.28 42.128C388.42 43.9097 387.191 45.2614 385.594 46.2445C383.996 47.2275 382.214 47.719 380.187 47.719C378.098 47.719 376.316 47.2275 374.719 46.2445C373.121 45.2614 371.954 43.9097 371.094 42.128C370.234 40.4077 369.804 38.3801 369.804 36.1683C369.804 33.9565 370.234 31.9904 371.094 30.2086C371.954 28.4883 373.121 27.0752 374.719 26.0921C376.316 25.1091 378.098 24.6176 380.187 24.6176C382.214 24.6176 383.996 25.1091 385.594 26.0921C387.191 27.0752 388.42 28.4883 389.28 30.2086C390.14 31.9904 390.57 33.9565 390.57 36.1683C390.57 38.3801 390.14 40.4077 389.28 42.128ZM415.209 25.418V20.5028H413.796C411.215 20.5028 409.249 20.9329 407.836 21.793C406.362 22.6532 405.194 23.8205 404.334 25.2337L403.658 20.5028H399.296V51.8372H404.334V35.8628C404.334 32.9137 404.949 30.4561 406.239 28.4285C407.529 26.4625 409.679 25.418 412.69 25.418H415.209ZM271.067 20.5028H276.474L285.936 46.1233L295.336 20.5028H300.62L288.885 51.8372H282.802L271.067 20.5028Z" clip-rule="evenodd" fill-rule="evenodd"/>
<path fill="url(#paint1_linear_550_9)" d="M166.4 196.117V126.117H176.9L211 175.717V126.117H222.3V196.117H211.8L177.7 146.517V196.117H166.4ZM244.252 193.517C240.252 191.317 237.252 188.317 235.052 184.317C232.852 180.317 231.852 175.717 231.852 170.517C231.852 165.417 232.852 160.917 235.052 156.917C237.252 152.917 240.252 149.817 244.252 147.617C248.252 145.417 252.752 144.317 257.952 144.317C263.052 144.317 267.552 145.417 271.552 147.617C275.552 149.817 278.552 152.917 280.752 156.917C282.952 160.917 284.052 165.417 284.052 170.517C284.052 175.717 282.952 180.317 280.752 184.317C278.552 188.317 275.552 191.317 271.552 193.517C267.552 195.717 263.052 196.717 257.952 196.717C252.752 196.717 248.252 195.717 244.252 193.517ZM268.852 182.817C271.652 179.617 273.052 175.517 273.052 170.517C273.052 165.517 271.652 161.517 268.852 158.317C266.052 155.117 262.452 153.517 257.952 153.517C253.352 153.517 249.752 155.117 247.052 158.317C244.252 161.517 242.952 165.517 242.952 170.517C242.952 175.517 244.252 179.617 247.052 182.817C249.752 186.017 253.352 187.517 257.952 187.517C262.452 187.517 266.052 186.017 268.852 182.817ZM341.537 186.717V196.117H335.837C332.437 196.117 330.037 195.417 328.637 194.017C327.137 192.617 326.437 190.617 326.437 187.917C322.537 193.817 316.937 196.717 309.537 196.717C303.737 196.717 299.137 195.417 295.737 192.717C292.237 190.117 290.537 186.417 290.537 181.717C290.537 176.517 292.337 172.417 296.137 169.617C299.837 166.817 305.237 165.317 312.437 165.317H325.337V162.217C325.337 159.417 324.337 157.117 322.337 155.517C320.337 153.917 317.537 153.017 314.037 153.017C310.837 153.017 308.237 153.717 306.237 155.117C304.237 156.517 303.037 158.317 302.637 160.517H292.037C292.537 155.417 294.837 151.417 298.837 148.617C302.837 145.817 308.037 144.317 314.537 144.317C321.337 144.317 326.637 145.917 330.437 149.117C334.137 152.317 336.037 156.917 336.037 162.917V183.117C336.037 185.517 337.137 186.717 339.437 186.717H341.537ZM325.337 173.317H311.937C308.537 173.317 306.037 174.017 304.237 175.317C302.437 176.617 301.537 178.517 301.537 181.017C301.537 183.217 302.337 185.017 304.037 186.317C305.737 187.717 308.037 188.317 311.037 188.317C315.437 188.317 318.937 187.117 321.437 184.717C323.937 182.317 325.237 179.117 325.337 175.117V173.317ZM389.02 149.917C392.82 153.717 394.82 159.717 394.82 167.917V196.117H384.02V168.517C384.02 163.717 382.92 160.017 380.82 157.417C378.72 154.917 375.72 153.617 371.72 153.617C367.42 153.617 364.02 155.117 361.62 158.117C359.22 161.117 358.02 165.117 358.02 170.217V196.117H347.22V126.117H358.02V152.317C361.82 147.017 367.22 144.317 374.12 144.317C380.22 144.317 385.22 146.217 389.02 149.917ZM432.327 142.517C435.127 137.117 439.027 133.017 444.227 130.017C449.327 127.017 455.327 125.517 462.227 125.517C470.227 125.517 476.927 127.717 482.327 132.117C487.627 136.517 490.927 142.517 492.127 149.917H480.727C479.527 145.517 477.327 142.017 474.027 139.417C470.727 136.917 466.727 135.617 461.927 135.617C457.527 135.617 453.627 136.717 450.327 138.917C447.027 141.117 444.527 144.117 442.727 147.917C440.927 151.717 440.027 156.117 440.027 161.117C440.027 166.117 440.827 170.617 442.627 174.417C444.427 178.217 446.927 181.217 450.227 183.417C453.527 185.617 457.427 186.617 461.827 186.617C467.427 186.617 472.027 185.117 475.827 182.017C479.627 179.017 481.627 174.717 481.927 169.217V167.517H462.527V157.817H492.927V196.117H484.227L483.027 186.117C481.027 189.117 478.127 191.617 474.427 193.617C470.727 195.717 466.327 196.717 461.327 196.717C454.827 196.717 449.127 195.317 444.127 192.317C439.127 189.317 435.227 185.117 432.427 179.717C429.627 174.317 428.227 168.117 428.227 161.117C428.227 154.117 429.527 147.917 432.327 142.517ZM514.932 193.517C510.932 191.317 507.932 188.317 505.732 184.317C503.532 180.317 502.532 175.717 502.532 170.517C502.532 165.417 503.532 160.917 505.732 156.917C507.932 152.917 510.932 149.817 514.932 147.617C518.932 145.417 523.432 144.317 528.632 144.317C533.732 144.317 538.232 145.417 542.232 147.617C546.232 149.817 549.232 152.917 551.432 156.917C553.632 160.917 554.732 165.417 554.732 170.517C554.732 175.717 553.632 180.317 551.432 184.317C549.232 188.317 546.232 191.317 542.232 193.517C538.232 195.717 533.732 196.717 528.632 196.717C523.432 196.717 518.932 195.717 514.932 193.517ZM539.532 182.817C542.332 179.617 543.732 175.517 543.732 170.517C543.732 165.517 542.332 161.517 539.532 158.317C536.732 155.117 533.132 153.517 528.632 153.517C524.032 153.517 520.432 155.117 517.732 158.317C514.932 161.517 513.632 165.517 513.632 170.517C513.632 175.517 514.932 179.617 517.732 182.817C520.432 186.017 524.032 187.517 528.632 187.517C533.132 187.517 536.732 186.017 539.532 182.817ZM563.216 126.117H574.016V196.117H563.216V126.117ZM634.103 126.117V196.117H624.703L623.403 188.417C619.303 194.017 613.703 196.717 606.703 196.717C602.003 196.717 597.803 195.717 594.203 193.617C590.503 191.517 587.603 188.517 585.603 184.517C583.503 180.517 582.503 175.917 582.503 170.517C582.503 165.317 583.503 160.817 585.603 156.817C587.703 152.817 590.603 149.817 594.303 147.617C597.903 145.417 602.103 144.317 606.703 144.317C610.403 144.317 613.703 145.017 616.503 146.417C619.303 147.817 621.503 149.617 623.303 152.017V126.117H634.103ZM619.303 182.917C622.003 179.817 623.403 175.717 623.403 170.717C623.403 165.617 622.003 161.517 619.303 158.317C616.503 155.117 612.903 153.517 608.503 153.517C604.003 153.517 600.403 155.117 597.703 158.317C594.903 161.517 593.603 165.517 593.603 170.517C593.603 175.617 594.903 179.717 597.703 182.917C600.403 186.117 604.003 187.617 608.503 187.617C612.903 187.617 616.503 186.117 619.303 182.917ZM717.257 149.817C720.757 153.417 722.557 159.217 722.557 167.217V196.117H711.757V167.317C711.757 162.917 710.857 159.517 709.057 157.117C707.257 154.817 704.557 153.617 701.057 153.617C697.257 153.617 694.357 155.017 692.157 157.617C689.957 160.217 688.957 163.817 688.957 168.417V196.117H678.057V167.317C678.057 162.817 677.057 159.417 675.257 157.117C673.457 154.817 670.757 153.617 667.257 153.617C663.557 153.617 660.657 155.017 658.457 157.717C656.257 160.517 655.257 164.117 655.257 168.717V196.117H644.457V144.917H653.857L655.057 151.617C658.657 146.817 663.657 144.417 670.057 144.317C673.657 144.317 676.757 145.117 679.557 146.617C682.257 148.217 684.357 150.517 685.857 153.617C687.657 150.717 689.957 148.417 692.957 146.817C695.857 145.217 699.357 144.317 703.557 144.317C709.157 144.317 713.657 146.217 717.257 149.817ZM781.148 186.717V196.117H775.448C772.048 196.117 769.648 195.417 768.248 194.017C766.748 192.617 766.048 190.617 766.048 187.917C762.148 193.817 756.548 196.717 749.148 196.717C743.348 196.717 738.748 195.417 735.348 192.717C731.848 190.117 730.148 186.417 730.148 181.717C730.148 176.517 731.948 172.417 735.748 169.617C739.448 166.817 744.848 165.317 752.048 165.317H764.948V162.217C764.948 159.417 763.948 157.117 761.948 155.517C759.948 153.917 757.148 153.017 753.648 153.017C750.448 153.017 747.848 153.717 745.848 155.117C743.848 156.517 742.648 158.317 742.248 160.517H731.648C732.148 155.417 734.448 151.417 738.448 148.617C742.448 145.817 747.648 144.317 754.148 144.317C760.948 144.317 766.248 145.917 770.048 149.117C773.748 152.317 775.648 156.917 775.648 162.917V183.117C775.648 185.517 776.748 186.717 779.048 186.717H781.148ZM764.948 173.317H751.548C748.148 173.317 745.648 174.017 743.848 175.317C742.048 176.617 741.148 178.517 741.148 181.017C741.148 183.217 741.948 185.017 743.648 186.317C745.348 187.717 747.648 188.317 750.648 188.317C755.048 188.317 758.548 187.117 761.048 184.717C763.548 182.317 764.848 179.117 764.948 175.117V173.317ZM828.63 149.917C832.43 153.717 834.43 159.717 834.43 167.917V196.117H823.53V168.517C823.53 163.717 822.43 160.017 820.43 157.417C818.33 154.917 815.33 153.617 811.33 153.617C807.03 153.617 803.63 155.117 801.23 158.117C798.83 161.117 797.63 165.117 797.63 170.317V196.117H786.83V144.917H796.23L797.43 151.617C801.23 146.817 806.73 144.317 813.83 144.317C819.83 144.317 824.83 146.217 828.63 149.917Z"/>
<path fill="#F6F8FC" d="M163.984 236.389C165.28 233.797 167.152 231.829 169.6 230.389C172 228.949 174.832 228.229 178.048 228.229C181.744 228.229 184.864 229.237 187.36 231.253C189.856 233.269 191.44 236.053 192.112 239.509H187.936C187.312 237.205 186.112 235.381 184.336 234.037C182.56 232.741 180.4 232.069 177.856 232.069C175.552 232.069 173.488 232.645 171.76 233.749C169.984 234.901 168.64 236.437 167.68 238.453C166.72 240.469 166.288 242.725 166.288 245.317C166.288 247.909 166.72 250.165 167.68 252.181C168.64 254.197 169.984 255.781 171.76 256.885C173.488 258.037 175.552 258.565 177.856 258.565C180.448 258.565 182.608 257.941 184.336 256.645C186.064 255.349 187.216 253.525 187.888 251.125H192.064C191.392 254.629 189.856 257.365 187.36 259.381C184.864 261.397 181.792 262.405 178.048 262.405C174.832 262.405 172 261.733 169.6 260.293C167.152 258.853 165.28 256.885 163.984 254.293C162.64 251.701 162.016 248.725 162.016 245.317C162.016 241.957 162.64 238.981 163.984 236.389ZM197.342 228.517H218.75V232.357H201.518V243.109H215.87V246.949H201.518V258.277H219.374V262.117H197.342V228.517ZM251.688 254.101C250.344 256.693 248.424 258.757 246.024 260.197C243.576 261.685 240.792 262.405 237.72 262.405C234.6 262.405 231.816 261.685 229.416 260.197C226.968 258.757 225.048 256.693 223.704 254.101C222.36 251.509 221.688 248.581 221.688 245.317C221.688 242.053 222.36 239.125 223.704 236.533C225.048 233.941 226.968 231.925 229.416 230.437C231.816 228.997 234.6 228.229 237.72 228.229C240.792 228.229 243.576 228.997 246.024 230.437C248.424 231.925 250.344 233.941 251.688 236.533C253.032 239.125 253.752 242.053 253.752 245.317C253.752 248.581 253.032 251.509 251.688 254.101ZM227.448 252.181C228.408 254.197 229.8 255.733 231.576 256.885C233.352 258.037 235.416 258.565 237.72 258.565C240.024 258.565 242.04 258.037 243.816 256.885C245.592 255.733 246.984 254.197 247.992 252.181C248.952 250.165 249.48 247.909 249.48 245.317C249.48 242.773 248.952 240.517 247.992 238.501C246.984 236.485 245.592 234.949 243.816 233.797C242.04 232.645 240.024 232.069 237.72 232.069C235.416 232.069 233.352 232.645 231.576 233.797C229.8 234.949 228.408 236.485 227.448 238.501C226.44 240.517 225.96 242.773 225.96 245.317C225.96 247.909 226.44 250.165 227.448 252.181ZM296.717 228.517H317.597V232.357H300.893V243.589H314.717V247.429H300.893V262.117H296.717V228.517ZM324.616 260.821C322.792 259.765 321.352 258.325 320.344 256.405C319.288 254.533 318.808 252.373 318.808 249.877C318.808 247.429 319.288 245.269 320.344 243.349C321.352 241.477 322.792 239.989 324.616 238.933C326.44 237.877 328.552 237.349 330.952 237.349C333.304 237.349 335.416 237.877 337.24 238.933C339.064 239.989 340.504 241.477 341.56 243.349C342.568 245.269 343.096 247.429 343.096 249.877C343.096 252.373 342.568 254.533 341.56 256.405C340.504 258.325 339.064 259.765 337.24 260.821C335.416 261.877 333.304 262.405 330.952 262.405C328.552 262.405 326.44 261.877 324.616 260.821ZM335.176 257.749C336.424 256.981 337.384 255.925 338.056 254.533C338.728 253.189 339.064 251.605 339.064 249.877C339.064 248.149 338.728 246.613 338.056 245.221C337.384 243.877 336.424 242.773 335.176 242.005C333.928 241.237 332.536 240.853 330.952 240.853C329.32 240.853 327.928 241.237 326.68 242.005C325.432 242.773 324.52 243.877 323.848 245.221C323.176 246.613 322.84 248.149 322.84 249.877C322.84 251.605 323.176 253.189 323.848 254.533C324.52 255.925 325.432 256.981 326.68 257.749C327.928 258.517 329.32 258.901 330.952 258.901C332.536 258.901 333.928 258.517 335.176 257.749ZM368.682 237.637V262.117H365.274L364.746 258.853C362.874 261.253 360.282 262.405 356.922 262.405C353.994 262.405 351.642 261.541 349.914 259.717C348.138 257.941 347.274 255.109 347.274 251.269V237.637H351.21V251.029C351.21 253.573 351.738 255.493 352.842 256.837C353.946 258.181 355.53 258.805 357.594 258.805C359.802 258.805 361.578 258.037 362.826 256.405C364.074 254.821 364.746 252.661 364.746 249.877V237.637H368.682ZM393.199 240.037C395.023 241.861 395.935 244.645 395.935 248.485V262.117H391.999V248.725C391.999 246.229 391.423 244.309 390.271 242.965C389.119 241.621 387.487 240.949 385.375 240.949C383.071 240.949 381.247 241.765 379.951 243.349C378.607 244.981 377.983 247.141 377.983 249.877V262.117H374.047V237.637H377.455L377.983 240.949C379.807 238.549 382.495 237.349 386.047 237.349C389.023 237.349 391.375 238.261 393.199 240.037ZM424.186 228.517V262.117H420.778L420.25 258.181C418.186 261.013 415.402 262.405 411.85 262.405C409.546 262.405 407.53 261.925 405.754 260.917C403.978 259.957 402.586 258.517 401.578 256.597C400.57 254.725 400.09 252.469 400.09 249.877C400.09 247.429 400.57 245.269 401.578 243.349C402.586 241.477 403.978 239.989 405.802 238.933C407.578 237.877 409.594 237.349 411.85 237.349C413.818 237.349 415.498 237.733 416.938 238.453C418.33 239.173 419.434 240.133 420.25 241.381V228.517H424.186ZM416.41 257.797C417.658 257.029 418.618 255.973 419.29 254.629C419.962 253.285 420.298 251.701 420.298 249.973C420.298 248.245 419.962 246.661 419.29 245.269C418.618 243.877 417.658 242.773 416.41 242.005C415.162 241.237 413.77 240.853 412.234 240.853C409.786 240.853 407.818 241.717 406.33 243.397C404.842 245.077 404.122 247.237 404.122 249.877C404.122 252.565 404.842 254.725 406.33 256.405C407.818 258.085 409.786 258.901 412.234 258.901C413.77 258.901 415.162 258.565 416.41 257.797ZM430.123 243.301C431.083 241.429 432.475 239.989 434.251 238.933C435.979 237.877 437.995 237.349 440.299 237.349C442.507 237.349 444.523 237.829 446.251 238.741C447.979 239.701 449.323 241.045 450.331 242.773C451.291 244.549 451.819 246.613 451.915 248.965C451.915 249.349 451.867 249.877 451.819 250.645H432.811V250.981C432.859 253.381 433.579 255.301 435.019 256.741C436.411 258.181 438.235 258.901 440.539 258.901C442.267 258.901 443.755 258.469 445.003 257.605C446.251 256.741 447.067 255.493 447.499 253.909H451.483C451.003 256.405 449.803 258.469 447.883 260.053C445.963 261.637 443.611 262.405 440.827 262.405C438.379 262.405 436.267 261.925 434.443 260.869C432.619 259.813 431.179 258.373 430.171 256.453C429.163 254.533 428.683 252.373 428.683 249.877C428.683 247.381 429.163 245.221 430.123 243.301ZM447.835 247.381C447.643 245.317 446.827 243.685 445.483 242.533C444.139 241.381 442.411 240.805 440.347 240.805C438.475 240.805 436.843 241.429 435.451 242.629C434.011 243.877 433.243 245.461 433.051 247.381H447.835ZM468.839 237.637V241.477H466.871C464.519 241.477 462.839 242.293 461.831 243.829C460.823 245.413 460.343 247.333 460.343 249.637V262.117H456.407V237.637H459.815L460.343 241.333C461.015 240.229 461.927 239.317 463.079 238.645C464.183 237.973 465.719 237.637 467.735 237.637H468.839Z"/>
<path fill="white" d="M272.032 219.917H274.888V270.317H272.032V219.917Z"/>
<defs>
<linearGradient gradientUnits="userSpaceOnUse" y2="557" x2="492" y1="40" x1="492" id="paint0_linear_550_9">
<stop stop-color="#2251F4"/>
<stop stop-color="#101820" offset="1"/>
</linearGradient>
<linearGradient gradientUnits="userSpaceOnUse" y2="161.117" x2="1800" y1="161.117" x1="-8.98678e-06" id="paint1_linear_550_9">
<stop stop-color="#F6F8FC"/>
<stop stop-color="#101820" offset="1"/>
</linearGradient>
</defs>
</svg>